Coordinates
version=1
nRows=6
nColumns=63
inDegrees=yes

Units are S.I. units (second, meters, Newtons, ...)
If the header above contains a line with 'inDegrees', this indicates whether rotational values are in degrees (yes) or radians (no).

endheader
time	pelvis_tilt	pelvis_list	pelvis_rotation	pelvis_tx	pelvis_ty	pelvis_tz	hip_flexion_r	hip_adduction_r	hip_rotation_r	knee_angle_r	knee_angle_r_beta	ankle_angle_r	subtalar_angle_r	mtp_angle_r	hip_flexion_l	hip_adduction_l	hip_rotation_l	knee_angle_l	knee_angle_l_beta	ankle_angle_l	subtalar_angle_l	mtp_angle_l	L5_S1_Flex_Ext	L5_S1_Lat_Bending	L5_S1_axial_rotation	L4_L5_Flex_Ext	L4_L5_Lat_Bending	L4_L5_axial_rotation	L3_L4_Flex_Ext	L3_L4_Lat_Bending	L3_L4_axial_rotation	L2_L3_Flex_Ext	L2_L3_Lat_Bending	L2_L3_axial_rotation	L1_L2_Flex_Ext	L1_L2_Lat_Bending	L1_L2_axial_rotation	L1_T12_Flex_Ext	L1_T12_Lat_Bending	L1_T12_axial_rotation	Abs_r3	Abs_r2	Abs_r1	Abs_t1	Abs_t2	neck_flexion	neck_bending	neck_rotation	arm_flex_r	arm_add_r	arm_rot_r	elbow_flex_r	pro_sup_r	wrist_flex_r	wrist_dev_r	arm_flex_l	arm_add_l	arm_rot_l	elbow_flex_l	pro_sup_l	wrist_flex_l	wrist_dev_l
      3.90697674	     -0.71589271	     -3.00923547	     94.61865838	      0.18847079	      0.99142472	      0.45349117	     -0.43396105	      0.56209239	    -10.78582380	      3.91995286	      0.06841608	     26.46723607	     15.14419372	      0.00000000	      1.46830028	     -1.25699441	     -2.43281724	      2.58723369	      0.04515575	     28.09333469	      5.36447596	      0.00000000	      0.54928808	     -0.36895509	     -0.24565462	      1.02008289	     -0.49071026	     -0.26100804	      0.90242539	     -0.89707740	     -0.26100804	      0.62778135	     -0.89707740	     -0.21494780	      0.51006891	     -0.75237321	     -0.19959438	      0.31386321	     -0.57151143	     -0.18424097	      3.92350983	     -4.17369372	     -1.36625732	      0.00000000	      0.00000000	     28.34450084	     -6.99951337	    -16.87414972	     77.04652786	    -21.68890779	      9.38105566	    119.09530137	     88.84031120	     -3.69826874	     11.61690582	     20.78878877	     -9.37925312	     53.04643683	     45.11831467	     87.36284884	     -8.63348924	     -1.29676525
      3.93023256	     -0.74225270	     -3.01216287	     94.16389405	      0.18945308	      0.99089021	      0.45463778	     -0.22293606	      0.56536188	    -10.34463244	      3.93399073	      0.06866109	     26.73950511	     15.21215343	      0.00000000	      1.55623556	     -1.30373758	     -4.23103247	      2.79759553	      0.04882725	     28.31631980	      6.86163099	      0.00000000	      0.52130958	     -0.35992202	     -0.30931958	      0.96812401	     -0.47869629	     -0.32865205	      0.85645950	     -0.87511441	     -0.32865205	      0.59580471	     -0.87511441	     -0.27065463	      0.48408807	     -0.73395299	     -0.25132216	      0.29787629	     -0.55751922	     -0.23198968	      3.72366217	     -4.07150992	     -1.72034269	      0.00000000	      0.00000000	     28.32443964	     -7.89243066	    -16.20542987	     73.20053183	    -19.64450087	      9.38373929	    116.17020384	     88.82137129	    -17.60627399	      3.04734762	     20.42562753	     -8.56898883	     49.10292788	     43.47549363	     86.74084796	     -7.84598028	      0.44593669
      3.95348837	     -1.05596642	     -3.09395302	     93.34786837	      0.19157681	      0.99018270	      0.45573138	      0.11690177	      0.28888067	     -9.73054883	      4.05005601	      0.07068681	     27.08179022	     15.60930267	      0.00000000	      1.64295540	     -1.06695385	     -5.30902061	      2.94644606	      0.05142519	     28.25266279	      6.83179974	      0.00000000	      0.50585141	     -0.41037634	     -0.14777443	      0.93941665	     -0.54580053	     -0.15701033	      0.83106328	     -0.99778904	     -0.15701033	      0.57813757	     -0.99778904	     -0.12930263	      0.46973362	     -0.83683944	     -0.12006672	      0.28904349	     -0.63567295	     -0.11083082	      3.61324602	     -4.64225925	     -0.82187705	      0.00000000	      0.00000000	     28.28243258	     -9.19568382	    -18.66154547	     67.84900562	    -17.18777795	      5.56166713	    114.75104885	     88.67043390	    -20.98329409	      0.05626030	     20.79386491	     -7.79047316	     47.11914631	     41.43851634	     84.43928136	     -8.67221457	      1.54023392
      3.97674419	     -1.46295175	     -3.03678863	     93.07766142	      0.19332292	      0.98954238	      0.45745166	      0.27330917	     -0.05109229	     -9.55114657	      4.14609557	      0.07236302	     27.39619674	     15.83336724	      0.00000000	      1.77406955	     -0.79863932	     -7.01276500	      3.28408382	      0.05731808	     28.42236394	      8.41532544	      0.00000000	      0.46434934	     -0.47223414	      0.04386652	      0.86234316	     -0.62807140	      0.04660818	      0.76287954	     -1.14819008	      0.04660818	      0.53070486	     -1.14819008	      0.03838320	      0.43119480	     -0.96297986	      0.03564155	      0.26532921	     -0.73149068	      0.03289989	      3.31680092	     -5.34200702	      0.24397242	      0.00000000	      0.00000000	     28.21841992	    -10.75389096	    -21.64053185	     61.71048374	    -15.68954966	      3.32213522	    113.18665776	     87.73344816	    -27.86031641	     -4.61999744	     22.22965991	     -7.19134022	     48.17859312	     38.91391647	     80.98790842	     -9.45171161	      2.82852108
      4.00000000	     -2.06222427	     -3.10360533	     93.03723451	      0.19510119	      0.98874967	      0.45884656	      0.48180016	     -0.58594526	     -9.48566812	      4.20939706	      0.07346784	     27.73705782	     15.96896353	      0.00000000	      2.01066242	     -0.31038000	     -7.61262196	      3.52783044	      0.06157226	     28.44196567	      9.01487924	      0.00000000	      0.44595263	     -0.56910096	      0.21408946	      0.82817863	     -0.75690427	      0.22747005	      0.73265557	     -1.38371207	      0.22747005	      0.50967926	     -1.38371207	      0.18732827	      0.41411161	     -1.16051067	      0.17394768	      0.25481733	     -0.88153738	      0.16056709	      3.18539502	     -6.43778386	      1.19070133	      0.00000000	      0.00000000	     28.17077993	    -10.91331517	    -23.94364014	     54.41420584	    -13.78780411	      0.02381426	    111.19214334	     86.05224943	    -27.84824938	     -6.25837258	     23.03076538	     -6.92269318	     48.60398922	     36.93362194	     79.56077314	    -10.06608345	      3.39568725
      4.02325581	     -2.63422437	     -3.21489322	     93.09499945	      0.19659698	      0.98802623	      0.45978677	      0.64177664	     -1.09964064	     -9.47384695	      4.16407800	      0.07267687	     27.99597544	     16.05361701	      0.00000000	      2.29108525	      0.13130742	     -8.55671304	      3.75404323	      0.06552041	     28.62479842	     10.48785964	      0.00000000	      0.42912902	     -0.66239212	      0.40796810	      0.79693551	     -0.88098152	      0.43346610	      0.70501607	     -1.61054020	      0.43346610	      0.49045156	     -1.61054020	      0.35697208	      0.39848921	     -1.35075001	      0.33147408	      0.24520432	     -1.02604539	      0.30597607	      3.06522570	     -7.49311213	      2.26899617	      0.00000000	      0.00000000	     28.13821846	    -10.73001225	    -25.79655540	     46.69251719	    -11.81153544	     -3.28872184	    108.49025858	     84.32396024	    -24.38008181	     -5.60864096	     23.92768615	     -6.79472613	     50.61481347	     34.93108739	     78.84243312	    -11.30325452	      3.28420766
